# xmcd
#
# Track frame offsets:
#	150
#	12375
#	23900
#	36125
#	50050
#	61875
#	76100
#	86400
#	96950
#	109600
#	121412
#	133625
#	147275
#	156900
#	168562
#	185725
#
# Disc length: 2598
#
# Revision: 2
# Processed by: cddbd v1.5.1PL0 Copyright (c) Steve Scherf et al.
# Submitted via: Feurio! 1.63 - http://www.feurio.com
# Normalized: r1:DSETVAR1
#
DISCID=d50a2410
DTITLE=Various Artist - County Golden Years Volume One
DYEAR=1993
DGENRE=country
TTITLE0=Dottie West - Crazy
TTITLE1=Johnny Lee - Ramblin' Rose
TTITLE2=Hawkshaw Hawkins - Lonesome 7-7203
TTITLE3=Jimmy Dean - Big bad John
TTITLE4=Flatt and Scruggs - Foggy mountain breakdown
TTITLE5=Patti Page - Tennessee Waltz
TTITLE6=Skeeter Davis - My last date with you
TTITLE7=Buck Owens - Act natually
TTITLE8=Bill Anderson - Still
TTITLE9=Stonewall jackson - Waterloo
TTITLE10=Jean Shepard - Dear John
TTITLE11=David Houston - Almost persuaded
TTITLE12=Little Jimmy Dickens - May the bird of paradise fly up your nose
TTITLE13=Bobby Bare - Please don't tell me how the story ends
TTITLE14=Ray Stevens - Take care of business Mr Businessman
TTITLE15=Don Williams - Apartment #9
EXTD=
EXTT0=
EXTT1=
EXTT2=
EXTT3=
EXTT4=
EXTT5=
EXTT6=
EXTT7=
EXTT8=
EXTT9=
EXTT10=
EXTT11=
EXTT12=
EXTT13=
EXTT14=
EXTT15=
PLAYORDER=
